<svg width="70" height="24" viewBox="0 0 70 24" fill="none" xmlns="http://www.w3.org/2000/svg">
<path d="M0 6.7701H3.19848V5.58533C3.19848 3.77997 3.69602 2.40339 4.69111 1.45557C5.68619 0.48519 7.10774 0 8.95575 0H12.0831V3.45275H9.59545C8.07913 3.45275 7.32097 4.25388 7.32097 5.85614V6.7701H11.3724V10.2228H7.32097V23.6953H3.19848V10.2228H0V6.7701ZM21.0508 23.6953C19.1791 23.6953 17.7338 23.2214 16.715 22.2736C15.72 21.3032 15.2224 19.9154 15.2224 18.11V0H19.3449V17.7038C19.3449 18.5839 19.5463 19.2271 19.9491 19.6333C20.3518 20.0395 20.9678 20.2426 21.797 20.2426H22.6855V23.6953H21.0508ZM32.6418 24C30.5569 24 28.9103 23.3907 27.702 22.1721C26.4936 20.9309 25.8895 19.0691 25.8895 16.5867V6.7701H30.012V16.5867C30.012 17.8279 30.32 18.7645 30.936 19.3963C31.552 20.0282 32.3575 20.3441 33.3526 20.3441C34.5609 20.3441 35.5205 20.0169 36.2312 19.3625C36.9657 18.708 37.3566 17.8392 37.404 16.756V6.7701H41.5265V23.6953H38.2925L37.9726 21.8336C37.3329 22.5331 36.5629 23.0748 35.6626 23.4584C34.7623 23.8195 33.7554 24 32.6418 24ZM44.7403 6.7701H49.2181L53.8382 19.4302L58.245 6.7701H62.5096L56.2904 23.6953H51.3149L44.7403 6.7701ZM65.8775 6.7701H70V23.6953H65.8775V6.7701Z" fill="white"/>
</svg>
