<svg width="16" height="10" viewBox="0 0 16 10" fill="none" xmlns="http://www.w3.org/2000/svg">
<path d="M15.2569 2.65036C15.3353 2.57407 15.3975 2.48286 15.4401 2.38211C15.4826 2.28135 15.5045 2.1731 15.5045 2.06374C15.5045 1.95438 15.4826 1.84613 15.4401 1.74538C15.3976 1.6447 15.3354 1.55354 15.2571 1.47729C15.0988 1.32271 14.8863 1.23618 14.665 1.23618C14.4437 1.23618 14.2311 1.32275 14.0728 1.4774L13.9975 1.55096V1.55206L8 7.39837L1.92719 1.47865L1.7525 1.65749L1.92701 1.47847L1.9271 1.47856C1.76879 1.32397 1.55628 1.23743 1.335 1.23743C1.11368 1.23743 0.901143 1.324 0.742817 1.47865L0.742817 1.47865L0.74254 1.47892C0.664737 1.55515 0.602925 1.64614 0.560728 1.74656C0.518531 1.84698 0.496796 1.95482 0.496796 2.06374C0.496796 2.17267 0.518531 2.2805 0.560728 2.38092C0.602925 2.48134 0.664736 2.57233 0.74254 2.64856L0.74298 2.64899L7.38923 9.12899L7.38925 9.12902C7.55266 9.28829 7.77182 9.37743 8 9.37743C8.22819 9.37743 8.44735 9.28829 8.61075 9.12902L8.61076 9.12901L15.2569 2.65036ZM15.2569 2.65036L15.0825 2.47124M15.2569 2.65036L15.257 2.65026L15.0825 2.47124M15.0825 2.47124C15.1369 2.41825 15.1802 2.35488 15.2097 2.2849C15.2393 2.21491 15.2545 2.13971 15.2545 2.06374C15.2545 1.98777 15.2393 1.91258 15.2097 1.84259C15.1802 1.7726 15.1369 1.70924 15.0825 1.65624V2.47124Z" fill="#F46F17" stroke="#F46F17" stroke-width="0.5"/>
</svg>
