<svg width="22" height="20" viewBox="0 0 22 20" fill="none" xmlns="http://www.w3.org/2000/svg">
<path d="M21.152 0.743951C20.792 0.431951 20.216 0.383951 19.64 0.623951C19.016 0.863951 2.24 8.06395 1.544 8.37595C1.424 8.42395 0.343999 8.83195 0.439999 9.71995C0.535999 10.5359 1.424 10.872 1.52 10.9199L5.792 12.3839C6.08 13.3199 7.112 16.7999 7.352 17.5439C7.496 17.9999 7.736 18.6239 8.144 18.7439C8.504 18.8879 8.864 18.7679 9.104 18.5759L11.72 16.1519L15.92 19.4399L16.016 19.4879C16.304 19.6079 16.568 19.6799 16.832 19.6799C17.024 19.6799 17.24 19.6319 17.408 19.5599C18.032 19.2959 18.296 18.6959 18.32 18.6239L21.464 2.25595C21.68 1.41595 21.392 0.959951 21.152 0.743951ZM9.56 12.9599L8.12 16.7999L6.68 11.9999L17.72 3.83995L9.56 12.9599Z" fill="#363636"/>
</svg>
