<svg width="16" height="10" viewBox="0 0 16 10" fill="none" xmlns="http://www.w3.org/2000/svg">
<path d="M0.743674 7.96325C0.66532 8.03954 0.603043 8.13076 0.560519 8.23151C0.517996 8.33227 0.496089 8.44052 0.496089 8.54988C0.496089 8.65923 0.517996 8.76748 0.560519 8.86824C0.603012 8.96892 0.66523 9.06007 0.743502 9.13633C0.901816 9.29091 1.11431 9.37744 1.33558 9.37744C1.5569 9.37744 1.76944 9.29086 1.92776 9.13622L2.00308 9.06265V9.06155L8.00058 3.21525L14.0734 9.13497L14.2481 8.95613L14.0736 9.13514L14.0735 9.13505C14.2318 9.28965 14.4443 9.37619 14.6656 9.37619C14.8869 9.37619 15.0994 9.28961 15.2578 9.13497L15.2578 9.13497L15.258 9.1347C15.3358 9.05846 15.3977 8.96747 15.4399 8.86705C15.482 8.76663 15.5038 8.6588 15.5038 8.54988C15.5038 8.44095 15.482 8.33312 15.4399 8.2327C15.3977 8.13228 15.3358 8.04129 15.258 7.96505L15.2576 7.96462L8.61135 1.48462L8.61133 1.4846C8.44792 1.32533 8.22876 1.23619 8.00058 1.23619C7.77239 1.23619 7.55323 1.32533 7.38983 1.4846L7.38982 1.48461L0.743674 7.96325ZM0.743674 7.96325L0.918076 8.14237M0.743674 7.96325L0.743569 7.96336L0.918076 8.14237M0.918076 8.14237C0.863647 8.19537 0.820385 8.25873 0.790846 8.32872C0.761307 8.39871 0.746089 8.47391 0.746089 8.54988C0.746089 8.62584 0.761307 8.70104 0.790846 8.77103C0.820385 8.84102 0.863647 8.90438 0.918076 8.95738V8.14237Z" fill="#F46F17" stroke="#F46F17" stroke-width="0.5"/>
</svg>
