<svg width="24" height="18" viewBox="0 0 24 18" fill="none" xmlns="http://www.w3.org/2000/svg">
<path d="M23.0632 1.60131C22.1961 0.571629 20.5935 0.153564 17.5432 0.153564H6.45677C3.32903 0.153564 1.70323 0.602597 0.843871 1.70195C0 2.77034 0 4.34195 0 6.52518V10.6826C0 14.9097 0.99871 17.0465 6.45677 17.0465H17.5432C20.191 17.0465 21.6619 16.6749 22.6065 15.769C23.5819 14.84 23.9923 13.3149 23.9923 10.6826V6.52518C24 4.22582 23.9381 2.63873 23.0632 1.60131ZM15.4065 9.17292L10.3742 11.8052C10.2581 11.8671 10.1419 11.8903 10.0181 11.8903C9.87871 11.8903 9.73935 11.8516 9.61548 11.782C9.38323 11.6426 9.24387 11.3871 9.24387 11.1161V5.86711C9.24387 5.59614 9.38323 5.3484 9.61548 5.20905C9.84774 5.06969 10.1342 5.06195 10.3742 5.18582L15.4065 7.8026C15.6619 7.93421 15.8245 8.19744 15.8245 8.49163C15.8245 8.77808 15.6619 9.04131 15.4065 9.17292Z" fill="#363636"/>
</svg>
